<?xml version="1.0" encoding="UTF-8" standalone="no"?>
<svg width="289.983mm" height="190.147mm"
 viewBox="0 0 822 539"
 xmlns="http://www.w3.org/2000/svg" xmlns:xlink="http://www.w3.org/1999/xlink"  version="1.2" baseProfile="tiny">
<title>Qt SVG Document</title>
<desc>MATLAB, The MathWorks, Inc. Version 25.2.0.2998904 R2025b</desc>
<defs>
</defs>
<g fill="none" stroke="black" stroke-width="1" fill-rule="evenodd" stroke-linecap="square" stroke-linejoin="bevel" >

<g fill="#ffffff" fill-opacity="1" stroke="none" transform="matrix(0.507285,0,0,0.512563,-113.654,-32.9699)"
font-family=".AppleSystemUIFont" font-size="13" font-weight="400" font-style="normal" 
>
<path vector-effect="none" fill-rule="evenodd" d="M224,64 L1843,64 L1843,1115 L224,1115 L224,64"/>
</g>

<g fill="#ffffff" fill-opacity="1" stroke="none" transform="matrix(5.07285e-05,0,0,5.12563e-05,-113.654,-32.9699)"
font-family=".AppleSystemUIFont" font-size="13" font-weight="400" font-style="normal" 
>
<path vector-effect="none" fill-rule="evenodd" d="M2.62e+06,910000 L2.62e+06,1.082e+07 L1.826e+07,1.082e+07 L1.826e+07,910000 L2.62e+06,910000"/>
</g>

<g fill="#212121" fill-opacity="0.14902" stroke="#212121" stroke-opacity="0.14902" stroke-dasharray="4,4" stroke-dashoffset="0" stroke-width="4" stroke-linecap="butt" stroke-linejoin="round" transform="matrix(0.507285,0,0,0.512563,-113.654,-32.9699)"
font-family=".AppleSystemUIFont" font-size="13" font-weight="400" font-style="normal" 
>
<polyline fill="none" vector-effect="none" points="262,1082 262,91 " />
<polyline fill="none" vector-effect="none" points="390.312,1082 390.312,91 " />
<polyline fill="none" vector-effect="none" points="489.839,1082 489.839,91 " />
<polyline fill="none" vector-effect="none" points="571.159,1082 571.159,91 " />
<polyline fill="none" vector-effect="none" points="639.913,1082 639.913,91 " />
<polyline fill="none" vector-effect="none" points="699.471,1082 699.471,91 " />
<polyline fill="none" vector-effect="none" points="752.005,1082 752.005,91 " />
<polyline fill="none" vector-effect="none" points="1108.16,1082 1108.16,91 " />
<polyline fill="none" vector-effect="none" points="1289,1082 1289,91 " />
<polyline fill="none" vector-effect="none" points="1417.31,1082 1417.31,91 " />
<polyline fill="none" vector-effect="none" points="1516.84,1082 1516.84,91 " />
<polyline fill="none" vector-effect="none" points="1598.16,1082 1598.16,91 " />
<polyline fill="none" vector-effect="none" points="1666.92,1082 1666.92,91 " />
<polyline fill="none" vector-effect="none" points="1726.47,1082 1726.47,91 " />
<polyline fill="none" vector-effect="none" points="1779.01,1082 1779.01,91 " />
</g>

<g fill="#212121" fill-opacity="0.14902" stroke="#212121" stroke-opacity="0.14902" stroke-width="4" stroke-linecap="butt" stroke-linejoin="round" transform="matrix(0.507285,0,0,0.512563,-113.654,-32.9699)"
font-family=".AppleSystemUIFont" font-size="13" font-weight="400" font-style="normal" 
>
<polyline fill="none" vector-effect="none" points="798.998,1082 798.998,91 " />
<polyline fill="none" vector-effect="none" points="1826,1082 1826,91 " />
<polyline fill="none" vector-effect="none" points="1826,1082 262,1082 " />
<polyline fill="none" vector-effect="none" points="1826,586.5 262,586.5 " />
<polyline fill="none" vector-effect="none" points="1826,91 262,91 " />
</g>

<g fill="#212121" fill-opacity="1" stroke="#212121" stroke-opacity="1" stroke-width="4" stroke-linecap="square" stroke-linejoin="round" transform="matrix(0.507285,0,0,0.512563,-113.654,-32.9699)"
font-family=".AppleSystemUIFont" font-size="13" font-weight="400" font-style="normal" 
>
<polyline fill="none" vector-effect="none" points="262,1082 1826,1082 " />
<polyline fill="none" vector-effect="none" points="798.998,1082 798.998,1003.8 " />
<polyline fill="none" vector-effect="none" points="1826,1082 1826,1003.8 " />
<polyline fill="none" vector-effect="none" points="262,1082 262,1042.9 " />
<polyline fill="none" vector-effect="none" points="390.312,1082 390.312,1042.9 " />
<polyline fill="none" vector-effect="none" points="489.839,1082 489.839,1042.9 " />
<polyline fill="none" vector-effect="none" points="571.159,1082 571.159,1042.9 " />
<polyline fill="none" vector-effect="none" points="639.913,1082 639.913,1042.9 " />
<polyline fill="none" vector-effect="none" points="699.471,1082 699.471,1042.9 " />
<polyline fill="none" vector-effect="none" points="752.005,1082 752.005,1042.9 " />
<polyline fill="none" vector-effect="none" points="798.998,1082 798.998,1042.9 " />
<polyline fill="none" vector-effect="none" points="1108.16,1082 1108.16,1042.9 " />
<polyline fill="none" vector-effect="none" points="1289,1082 1289,1042.9 " />
<polyline fill="none" vector-effect="none" points="1417.31,1082 1417.31,1042.9 " />
<polyline fill="none" vector-effect="none" points="1516.84,1082 1516.84,1042.9 " />
<polyline fill="none" vector-effect="none" points="1598.16,1082 1598.16,1042.9 " />
<polyline fill="none" vector-effect="none" points="1666.92,1082 1666.92,1042.9 " />
<polyline fill="none" vector-effect="none" points="1726.47,1082 1726.47,1042.9 " />
<polyline fill="none" vector-effect="none" points="1779.01,1082 1779.01,1042.9 " />
<polyline fill="none" vector-effect="none" points="1826,1082 1826,1042.9 " />
</g>

<g fill="#212121" fill-opacity="1" stroke="#212121" stroke-opacity="1" stroke-width="1" stroke-linecap="square" stroke-linejoin="bevel" transform="matrix(0.507285,0,0,0.512563,283.55,537)"
font-family="Helvetica" font-size="20" font-weight="400" font-style="normal" 
>
<text fill="#212121" fill-opacity="1" stroke="none" xml:space="preserve" x="0" y="0.390625" font-family="Helvetica" font-size="20" font-weight="400" font-style="normal" 
 >10</text>
</g>

<g fill="#212121" fill-opacity="1" stroke="#212121" stroke-opacity="1" stroke-width="1" stroke-linecap="square" stroke-linejoin="bevel" transform="matrix(0.507285,0,0,0.512563,294.71,531.874)"
font-family="Helvetica" font-size="16" font-weight="400" font-style="normal" 
>
<text fill="#212121" fill-opacity="1" stroke="none" xml:space="preserve" x="0" y="0.3125" font-family="Helvetica" font-size="16" font-weight="400" font-style="normal" 
 >3</text>
</g>

<g fill="#212121" fill-opacity="1" stroke="#212121" stroke-opacity="1" stroke-width="1" stroke-linecap="square" stroke-linejoin="bevel" transform="matrix(0.507285,0,0,0.512563,804.531,537)"
font-family="Helvetica" font-size="20" font-weight="400" font-style="normal" 
>
<text fill="#212121" fill-opacity="1" stroke="none" xml:space="preserve" x="0" y="0.390625" font-family="Helvetica" font-size="20" font-weight="400" font-style="normal" 
 >10</text>
</g>

<g fill="#212121" fill-opacity="1" stroke="#212121" stroke-opacity="1" stroke-width="1" stroke-linecap="square" stroke-linejoin="bevel" transform="matrix(0.507285,0,0,0.512563,815.692,531.874)"
font-family="Helvetica" font-size="16" font-weight="400" font-style="normal" 
>
<text fill="#212121" fill-opacity="1" stroke="none" xml:space="preserve" x="0" y="0.3125" font-family="Helvetica" font-size="16" font-weight="400" font-style="normal" 
 >4</text>
</g>

<g fill="#212121" fill-opacity="1" stroke="#212121" stroke-opacity="1" stroke-width="4" stroke-linecap="square" stroke-linejoin="round" transform="matrix(0.507285,0,0,0.512563,-113.654,-32.9699)"
font-family="Helvetica" font-size="16" font-weight="400" font-style="normal" 
>
<polyline fill="none" vector-effect="none" points="262,1082 262,91 " />
<polyline fill="none" vector-effect="none" points="262,1082 340.2,1082 " />
<polyline fill="none" vector-effect="none" points="262,586.5 340.2,586.5 " />
<polyline fill="none" vector-effect="none" points="262,91 340.2,91 " />
</g>

<g fill="#212121" fill-opacity="1" stroke="#212121" stroke-opacity="1" stroke-width="1" stroke-linecap="square" stroke-linejoin="bevel" transform="matrix(0.507285,0,0,0.512563,9.61655,524.186)"
font-family="Helvetica" font-size="20" font-weight="400" font-style="normal" 
>
<text fill="#212121" fill-opacity="1" stroke="none" xml:space="preserve" x="0" y="0.390625" font-family="Helvetica" font-size="20" font-weight="400" font-style="normal" 
 >0</text>
</g>

<g fill="#212121" fill-opacity="1" stroke="#212121" stroke-opacity="1" stroke-width="1" stroke-linecap="square" stroke-linejoin="bevel" transform="matrix(0.507285,0,0,0.512563,0.992715,270.211)"
font-family="Helvetica" font-size="20" font-weight="400" font-style="normal" 
>
<text fill="#212121" fill-opacity="1" stroke="none" xml:space="preserve" x="0" y="0.390625" font-family="Helvetica" font-size="20" font-weight="400" font-style="normal" 
 >0.5</text>
</g>

<g fill="#212121" fill-opacity="1" stroke="#212121" stroke-opacity="1" stroke-width="1" stroke-linecap="square" stroke-linejoin="bevel" transform="matrix(0.507285,0,0,0.512563,9.61655,16.2362)"
font-family="Helvetica" font-size="20" font-weight="400" font-style="normal" 
>
<text fill="#212121" fill-opacity="1" stroke="none" xml:space="preserve" x="0" y="0.390625" font-family="Helvetica" font-size="20" font-weight="400" font-style="normal" 
 >1</text>
</g>

<g fill="#212121" fill-opacity="1" stroke="#212121" stroke-opacity="1" stroke-width="1" stroke-linecap="square" stroke-linejoin="bevel" transform="matrix(0.507285,0,0,0.512563,337.322,9.701)"
font-family="Helvetica" font-size="22" font-weight="700" font-style="normal" 
>
<text fill="#212121" fill-opacity="1" stroke="none" xml:space="preserve" x="0" y="-0.0625" font-family="Helvetica" font-size="22" font-weight="700" font-style="normal" 
 >Blank Logarithmic X-axis Plot</text>
</g>
</g>
</svg>
