<?xml version="1.0" encoding="UTF-8" standalone="no"?>
<!-- Created with Inkscape (http://www.inkscape.org/) -->

<svg
   width="220mm"
   height="220mm"
   viewBox="0 0 220 220"
   version="1.1"
   id="svg1157"
   inkscape:version="1.1.2 (0a00cf5339, 2022-02-04, custom)"
   sodipodi:docname="logo_silhouette_v0.6_square_notext.svg"
   inkscape:export-filename="/home/cbrown/cabrown149/work/lab/images/logo_silhouette/logo_silhouette_v0.5_icon.png"
   inkscape:export-xdpi="96"
   inkscape:export-ydpi="96"
   xmlns:inkscape="http://www.inkscape.org/namespaces/inkscape"
   xmlns:sodipodi="http://sodipodi.sourceforge.net/DTD/sodipodi-0.dtd"
   xmlns="http://www.w3.org/2000/svg"
   xmlns:svg="http://www.w3.org/2000/svg">
  <sodipodi:namedview
     id="namedview1159"
     pagecolor="#ffffff"
     bordercolor="#666666"
     borderopacity="1.0"
     inkscape:pageshadow="2"
     inkscape:pageopacity="0.0"
     inkscape:pagecheckerboard="0"
     inkscape:document-units="mm"
     showgrid="false"
     fit-margin-top="15"
     lock-margins="true"
     fit-margin-left="15"
     fit-margin-right="15"
     fit-margin-bottom="15"
     inkscape:zoom="0.47601826"
     inkscape:cx="303.55978"
     inkscape:cy="485.2755"
     inkscape:window-width="1920"
     inkscape:window-height="1003"
     inkscape:window-x="0"
     inkscape:window-y="0"
     inkscape:window-maximized="1"
     inkscape:current-layer="g116781"
     units="mm"
     showguides="false"
     height="220mm" />
  <defs
     id="defs1154" />
  <g
     inkscape:label="Layer 1"
     inkscape:groupmode="layer"
     id="layer1"
     transform="translate(51.898946,7.8021417)">
    <g
       id="g116781"
       transform="translate(14.344131,4.4381576)">
      <path
         style="fill:#464646;fill-opacity:1;stroke:#000004;stroke-width:1.06988;stroke-miterlimit:4;stroke-dasharray:none;stroke-opacity:1"
         d="m -47.394993,198.07515 c 0,-0.54628 0.409834,-0.85455 1.136145,-0.85455 0.509904,0 0.793628,-0.17639 1.332711,-0.82847 0.37674,-0.45562 1.070555,-1.24253 1.541957,-1.7486 0.471388,-0.50612 0.912506,-1.09474 0.980236,-1.30814 0.06776,-0.21341 0.322961,-0.49215 0.567178,-0.61946 0.244217,-0.12725 0.5813,-0.36105 0.749214,-0.51946 0.167828,-0.15849 0.769185,-0.5808 1.336305,-0.9383 1.71838,-1.08351 5.557814,-4.23749 6.13885,-5.04288 0.138656,-0.19229 1.150004,-0.9491 2.247428,-1.68202 1.097409,-0.7329 2.338153,-1.70312 2.757195,-2.15602 0.419036,-0.45292 0.881365,-0.82348 1.027375,-0.82348 0.146074,0 0.426453,-0.17789 0.623239,-0.3955 0.196786,-0.21747 0.62916,-0.45498 0.960836,-0.52781 0.331591,-0.073 0.848634,-0.26048 1.148834,-0.41725 0.300208,-0.15663 0.692354,-0.28537 0.871366,-0.28608 0.179026,-6.2e-4 0.682653,-0.25899 1.119056,-0.57396 0.436438,-0.31497 1.480232,-0.88085 2.31953,-1.25747 0.83929,-0.37667 1.817458,-0.89719 2.173684,-1.15678 0.356127,-0.25955 0.859796,-0.47303 1.119063,-0.47431 0.259267,-0.002 1.203848,-0.46105 2.0991,-1.02174 0.895245,-0.56062 1.893041,-1.17758 2.217314,-1.37099 2.237085,-1.33434 3.9417282,-4.00843 5.7365832,-8.99898 0.6664623,-1.85319 1.3038026,-4.59732 1.3038026,-5.61392 0,-0.35812 -0.1441482,-0.51668 -0.5595459,-0.61596 -1.1101905,-0.26526 -1.4765379,-0.87971 -2.6780959,-4.49213 -0.4393631,-1.32085 -1.117202,-3.31712 -1.506366,-4.43619 -0.38915,-1.11907 -1.096232,-3.22494 -1.571272,-4.67971 -0.475097,-1.45479 -0.935437,-2.73774 -1.023088,-2.851 -0.08766,-0.11319 -0.350849,-0.7084 -0.584795,-1.32253 -0.234018,-0.61411 -0.970443,-1.79245 -1.636535,-2.61853 -0.666106,-0.82604 -1.593433,-2.10788 -2.060762,-2.84851 -0.467323,-0.74067 -1.006712,-1.57727 -1.198627,-1.8592 -0.191936,-0.28188 -0.419606,-0.73531 -0.506052,-1.0075 -0.08645,-0.27225 -0.885701,-1.18032 -1.776239,-2.01809 -1.908932,-1.79577 -3.864697,-4.13672 -4.57486,-5.47585 -0.726839,-1.37061 -2.089813,-3.20764 -3.426368,-4.61819 -1.110918,-1.17241 -3.408395,-4.61093 -4.030785,-6.03269 -0.164119,-0.37495 -0.622597,-1.13948 -1.018702,-1.699 -1.323766,-1.86969 -2.513627,-4.44896 -3.472901,-7.52825 -0.522884,-1.6786 -1.036975,-3.261 -1.142301,-3.51647 -0.105347,-0.25549 -0.472172,-1.57586 -0.815068,-2.934217 -0.403986,-1.600551 -0.97933,-3.191466 -1.63453,-4.520439 -1.587463,-3.219932 -2.194041,-5.657362 -2.422267,-9.733624 -0.218041,-3.893919 -0.42788,-4.937963 -1.023652,-5.093772 -1.282747,-0.335514 -1.555566,-4.954389 -0.589217,-9.976123 0.142865,-0.742837 0.111838,-1.247648 -0.128314,-2.073059 -0.268325,-0.923097 -0.282305,-1.414149 -0.09051,-3.189083 0.124676,-1.153892 0.309907,-3.059365 0.411617,-4.23439 0.267184,-3.087003 0.534939,-4.29881 1.514376,-6.854284 0.574881,-1.499897 1.197978,-2.704372 1.826901,-3.531323 0.524882,-0.690214 1.004109,-1.405555 1.064821,-1.589546 0.06063,-0.18409 0.484726,-1.112794 0.942319,-2.063993 0.617962,-1.284723 1.148321,-2.033859 2.062232,-2.913184 1.423843,-1.369964 2.835004,-2.357389 3.588298,-2.510852 0.291791,-0.05991 0.682724,-0.371248 0.876237,-0.698844 0.192221,-0.325314 0.412901,-0.594353 0.490503,-0.597919 0.07767,-0.0038 0.308624,-0.133378 0.513184,-0.288582 0.307269,-0.232876 0.331306,-0.358409 0.137658,-0.720156 -0.128956,-0.241007 -0.368038,-0.951099 -0.531444,-1.57814 -0.356982,-1.370428 -0.105276,-2.95946 0.660043,-4.167615 0.264331,-0.417324 0.480518,-0.986278 0.480518,-1.264503 0,-0.29764 0.167543,-0.595494 0.406981,-0.723651 0.223819,-0.119826 0.406982,-0.375669 0.406982,-0.568675 0,-0.193006 0.173391,-0.459192 0.385512,-0.591571 0.246857,-0.154134 0.421461,-0.555908 0.485582,-1.117145 0.233804,-2.04619 2.339708,-6.43435 4.359872,-9.084943 1.74758,-2.292954 2.300122,-2.880324 2.709522,-2.880324 0.184946,0 0.434013,-0.214546 0.553412,-0.476737 0.300992,-0.660471 2.184818,-2.224689 3.408722,-2.830261 1.943796,-0.961777 3.368202,-1.790954 4.935109,-2.872821 0.866687,-0.5984182 1.853877,-1.2304234 2.193748,-1.404471 0.339936,-0.1740334 1.255459,-0.9016999 2.0346506,-1.6170128 C -8.6622905,6.4225787 -7.079043,5.1362365 -5.9231545,4.2793074 -3.3659334,2.3834916 -2.194011,1.7984042 2.3266493,0.16052875 3.7674889,-0.36150013 5.5441703,-1.0653012 6.274811,-1.4034966 c 1.0795135,-0.4996328 1.5155314,-0.5969203 2.3267695,-0.5190332 0.7419101,0.071468 1.3001294,-0.025677 2.1733065,-0.3786653 1.011526,-0.4085506 1.469733,-0.4673225 3.293882,-0.4223163 1.818057,0.044222 2.20558,0.1161173 2.729307,0.5025571 0.544639,0.4017746 0.873391,0.4529861 3.051997,0.4745976 1.691726,0.017118 2.803942,-0.076888 3.621435,-0.3044158 0.648916,-0.1808093 1.619003,-0.3287377 2.155732,-0.3287377 0.717431,0 1.073379,-0.107701 1.34413,-0.4069813 0.391218,-0.4323019 1.307597,-0.5439258 1.650443,-0.2010657 0.138798,0.1387988 0.884096,0.1263169 2.288332,-0.038516 l 2.082531,-0.24436 0.49521,0.5340828 c 0.441432,0.4760242 0.567392,0.5117581 1.160404,0.3285951 0.38109,-0.1177579 2.765448,-0.1945037 5.583398,-0.1797394 2.782159,0.014978 6.758758,-0.1119092 9.155968,-0.291292 6.271251,-0.4692483 11.573493,-0.1870146 14.105829,0.7511538 0.711682,0.2636892 1.998238,0.4791625 3.534247,0.5920702 1.32836,0.097644 2.701747,0.300065 3.051997,0.4497765 0.830424,0.35505669 3.872471,0.96070719 5.908198,1.17628037 0.925901,0.0980721 1.832915,0.31960807 2.136403,0.52195756 0.290151,0.19336252 1.030948,0.41325797 1.646427,0.48857737 1.288461,0.1577713 2.839191,0.5877907 3.86586,1.0718247 1.037389,0.4890766 3.165168,1.791631 3.70505,2.2680118 0.256343,0.2261008 0.786453,0.5641821 1.178135,0.7513892 0.391646,0.1870859 0.827343,0.5284482 0.968182,0.758693 0.140796,0.2302376 0.41554,0.4194632 0.610401,0.4205331 0.321747,0.00185 1.476794,0.5263084 2.948532,1.3389873 0.362831,0.2003524 0.559546,0.4761668 0.559546,0.7847552 0,0.2617633 0.137372,0.5284481 0.3052,0.5928547 0.167828,0.064193 0.305201,0.2556294 0.305201,0.4248841 0,0.1691832 0.248996,0.3702489 0.553412,0.4465668 0.936884,0.235088 1.887057,0.904304 2.232014,1.571907 0.384585,0.7444 0.734684,1.057396 1.635029,1.462166 0.360977,0.162336 0.809441,0.592356 0.996513,0.95565 0.400058,0.776945 1.798758,2.142744 2.698408,2.634887 0.43787,0.239582 0.63358,0.497993 0.63358,0.836752 0,0.42631 0.42225,1.094905 1.37904,2.183306 1.05326,1.19817 2.08861,2.780383 2.19681,3.357097 0.0706,0.378523 0.25691,0.794291 0.41304,0.923889 0.1562,0.129598 0.28395,0.440504 0.28395,0.690998 0,0.250494 0.20941,0.765683 0.46518,1.145012 0.25584,0.379307 0.58615,0.984194 0.73398,1.344165 0.14786,0.359978 0.39629,0.760326 0.5522,0.889646 0.15578,0.129313 0.28331,0.480803 0.28331,0.781089 0,0.543213 0.62224,1.549254 1.41532,2.288083 0.22867,0.213048 0.41583,0.587363 0.41583,0.831765 0,0.25777 0.33252,0.745562 0.79218,1.162001 0.88035,0.797558 1.85288,2.979459 1.85288,4.156967 0,0.424028 0.11719,0.73313 0.3052,0.805346 0.43016,0.165118 0.39143,1.133314 -0.0506,1.27018 -0.19579,0.06063 -0.51504,0.195075 -0.70933,0.298781 -0.19429,0.103707 -0.53772,0.188584 -0.76304,0.188584 -0.32789,0 -0.4097,0.134091 -0.4097,0.671455 0,0.369322 -0.0986,0.770034 -0.21911,0.890566 -0.22225,0.222249 -0.16633,0.541929 0.52817,3.015978 0.15712,0.559546 0.3838,1.658253 0.50391,2.441588 0.26526,1.730242 0.71011,3.793957 2.06172,9.562908 1.46595,6.257207 1.42818,5.970922 1.52983,11.597557 0.0521,2.90956 0.18124,5.61058 0.28601,6.002248 0.10471,0.391647 0.19101,0.997768 0.19151,1.34689 0.003,1.564147 1.62526,5.248919 3.1697,7.198678 0.48758,0.615465 1.2079,1.531087 1.6008,2.034657 0.39293,0.503556 1.03704,1.313396 1.43142,1.799584 0.39436,0.486224 0.71705,0.954288 0.71705,1.040221 0,0.153705 0.6273,0.98443 1.89851,2.514133 0.3547,0.42681 2.13742,2.109577 3.96172,3.739571 4.25595,3.802659 5.12295,5.106112 5.12579,7.706366 0.003,2.74177 -2.01478,5.70614 -4.78031,7.02284 -1.47079,0.70027 -4.06042,2.18728 -4.52712,2.59956 -0.29521,0.26084 -0.45776,0.6358 -0.45776,1.05592 0,0.74416 0.76647,4.178 1.05665,4.73383 0.87572,1.67744 0.37503,6.25384 -0.85538,7.81805 -0.5328,0.67745 -1.82176,1.58345 -2.49184,1.75164 -0.30691,0.0769 -0.5579,0.22617 -0.5579,0.33137 0,0.10528 -0.46083,0.62253 -1.02407,1.14932 l -1.02406,0.9579 1.26842,0.67773 c 3.06221,1.63611 4.25352,4.08585 3.64451,7.49439 -0.4149,2.32182 -0.58187,3.00032 -0.76988,3.12762 -0.5741,0.38865 -2.29836,3.45386 -2.29836,4.08578 0,0.17653 0.19679,0.68572 0.43737,1.1317 0.24058,0.446 0.7099,1.54334 1.04305,2.4386 0.55855,1.50089 0.60776,1.84965 0.63087,4.47624 0.0285,3.25769 -0.244,4.50763 -1.39819,6.40766 -0.7032,1.15765 -2.63805,3.25697 -3.00175,3.25697 -0.10777,0 -0.46796,0.22888 -0.8004,0.50869 -0.33245,0.27981 -0.76654,0.50869 -0.96457,0.50869 -0.19807,0 -0.62595,0.13159 -0.95086,0.29236 -1.60766,0.79571 -10.11156,0.90528 -18.190587,0.2343 -7.348026,-0.61011 -10.815349,-0.77783 -13.984133,-0.67616 -4.264111,0.13673 -5.980886,0.64257 -8.163408,2.40484 -0.832286,0.6721 -2.064906,2.36856 -2.064906,2.84206 0,0.19044 -0.137301,0.46019 -0.305201,0.59949 -0.167828,0.13937 -0.3052,0.45969 -0.3052,0.71218 0,0.25228 -0.137372,0.57274 -0.3052,0.71218 -0.1679,0.1393 -0.305201,0.40363 -0.305201,0.5873 0,0.18373 -0.190367,0.8363 -0.423029,1.45021 -0.232663,0.61389 -0.516395,1.43665 -0.630443,1.82832 -0.232806,0.79948 -0.864618,2.03502 -1.508763,2.95025 -0.2363,0.33573 -0.48009,0.75496 -0.541715,0.93164 -0.06134,0.17667 -0.451345,0.85167 -0.866094,1.49998 -0.414685,0.64827 -1.075933,1.78558 -1.469363,2.52728 -0.393429,0.74168 -0.887035,1.5669 -1.096909,1.83379 -0.209839,0.2669 -0.381661,0.56625 -0.381661,0.66533 0,0.0991 -0.230737,0.54549 -0.512614,0.99213 -0.281877,0.44664 -0.939631,1.61221 -1.461531,2.59014 -0.521887,0.97796 -1.110141,2.05278 -1.307262,2.38848 -0.197143,0.33573 -0.594068,1.0682 -0.882064,1.62774 -0.288083,0.55954 -0.705192,1.33636 -0.926892,1.72628 -0.482158,0.8478 -0.508763,1.29004 -0.09807,1.63091 0.167828,0.13929 0.3052,0.36475 0.3052,0.50091 0,0.13623 0.208484,0.34265 0.4634,0.4587 0.893961,0.40726 1.774805,1.30326 1.774805,1.80523 v 0.49057 H 8.2526864 c -53.4512574,0 -55.6479434,-0.015 -55.6479434,-0.36625 z"
         id="path1053" />
      <g
         id="g145305">
        <g
           id="g145297">
          <path
             id="path2964-4-8-1-6"
             style="fill:none;stroke:#ffb91c;stroke-width:6;stroke-miterlimit:4;stroke-dasharray:none;stroke-opacity:1"
             d="m -28.292074,87.437988 c 0,-43.199584 29.5642948,-73.369451 65.362352,-73.369451 35.797994,0 64.818032,31.365162 64.818032,70.056047 H 92.9006 c 0,-33.325984 -24.996103,-60.342038 -55.830322,-60.342031 -30.834275,0 -55.830393,27.016054 -55.830393,60.342031 h 9.5039426 c 0,-27.65293 20.7410584,-50.070066 46.3264504,-50.070066 25.585328,0 46.326358,22.417136 46.326358,50.070066 h -9.502195 c 0,-21.980918 -16.486776,-39.799977 -36.824163,-39.799984 -20.337472,0 -36.82424084,17.819059 -36.82424084,39.799984 H 9.7738952 c 0,-16.293606 12.2210038,-29.502199 27.2963828,-29.502199 15.075294,0 27.296319,13.208593 27.296319,29.502199 h -9.605246 c 0,-10.560111 -7.920581,-19.120779 -17.691073,-19.120779 -9.770556,0 -17.691158,8.137653 -17.691158,22.374091"
             sodipodi:nodetypes="csccsccsccsccsccsc" />
          <path
             id="path2964-4-8-1"
             style="fill:none;stroke:#003594;stroke-width:3;stroke-miterlimit:4;stroke-dasharray:none;stroke-opacity:1"
             d="m -28.292074,85.465512 c 0,-40.082418 29.5642948,-71.56419 65.362352,-71.56419 35.797994,0 64.818032,31.365163 64.818032,70.056055 H 92.9006 c 0,-33.325992 -24.996103,-60.342046 -55.830322,-60.342038 -30.834275,0 -55.830393,27.016046 -55.830393,60.342038 h 9.5039426 c 0,-27.652938 20.7410584,-50.070074 46.3264504,-50.070074 25.585328,0 46.326358,22.417136 46.326358,50.070074 h -9.502195 c 0,-21.980925 -16.486776,-39.799984 -36.824163,-39.799992 -20.337472,0 -36.82424084,17.819059 -36.82424084,39.799992 H 9.7738952 c 0,-16.293621 12.2210038,-29.502207 27.2963828,-29.502207 15.075294,0 27.296319,13.208586 27.296319,29.502207 h -9.605246 c 0,-10.560112 -7.920581,-19.120772 -17.691073,-19.120779 -9.770556,0 -17.691158,8.649859 -17.691158,20.777163"
             sodipodi:nodetypes="csccsccsccsccsccsc" />
        </g>
        <g
           id="g145293">
          <ellipse
             style="fill:#003594;fill-opacity:1;stroke-width:0.5;stroke-miterlimit:4;stroke-dasharray:none;stroke:#000000;stroke-opacity:1"
             id="path918-8"
             cx="37.070255"
             cy="84.240204"
             rx="6.7123418"
             ry="7.0716829" />
          <ellipse
             style="fill:#ffb81c;fill-opacity:1;stroke-width:0.5;stroke-miterlimit:4;stroke-dasharray:none;stroke:none;stroke-opacity:1"
             id="path918-8-3"
             cx="37.070255"
             cy="84.240204"
             rx="3.1528323"
             ry="3.3216171" />
        </g>
      </g>
    </g>
  </g>
</svg>
